<?xml version="1.0" encoding="UTF-8" standalone="no"?>
<!-- Created with Inkscape (http://www.inkscape.org/) -->

<svg
   width="8in"
   height="6in"
   viewBox="0 0 203.2 152.4"
   version="1.1"
   id="svg5"
   xml:space="preserve"
   inkscape:version="1.1.2 (0a00cf5339, 2022-02-04)"
   sodipodi:docname="edmonton.svg"
   inkscape:export-filename="edmonton-print.png"
   inkscape:export-xdpi="250"
   inkscape:export-ydpi="250"
   xmlns:inkscape="http://www.inkscape.org/namespaces/inkscape"
   xmlns:sodipodi="http://sodipodi.sourceforge.net/DTD/sodipodi-0.dtd"
   xmlns:xlink="http://www.w3.org/1999/xlink"
   xmlns="http://www.w3.org/2000/svg"
   xmlns:svg="http://www.w3.org/2000/svg"><sodipodi:namedview
     id="namedview7"
     pagecolor="#ffffff"
     bordercolor="#666666"
     borderopacity="1.0"
     inkscape:showpageshadow="2"
     inkscape:pageopacity="0.0"
     inkscape:pagecheckerboard="0"
     inkscape:deskcolor="#d1d1d1"
     inkscape:document-units="mm"
     showgrid="false"
     inkscape:zoom="1.5988517"
     inkscape:cx="185.75832"
     inkscape:cy="30.646995"
     inkscape:window-width="2560"
     inkscape:window-height="1403"
     inkscape:window-x="0"
     inkscape:window-y="0"
     inkscape:window-maximized="1"
     inkscape:current-layer="layer2"
     inkscape:pageshadow="2"><inkscape:grid
       type="xygrid"
       id="grid1079"
       originx="0"
       originy="0" /></sodipodi:namedview><defs
     id="defs2"><marker
       style="overflow:visible"
       id="Arrow1-6"
       refX="0"
       refY="0"
       orient="auto-start-reverse"
       inkscape:stockid="Arrow1"
       markerWidth="4.0606604"
       markerHeight="6.7071066"
       viewBox="0 0 4.0606602 6.7071068"
       inkscape:isstock="true"
       inkscape:collect="always"
       preserveAspectRatio="xMidYMid"><path
         style="fill:none;stroke:context-stroke;stroke-width:1;stroke-linecap:butt"
         d="M 3,-3 0,0 3,3"
         id="path5057-2"
         transform="rotate(180,0.125,0)"
         sodipodi:nodetypes="ccc" /></marker></defs><g
     inkscape:groupmode="layer"
     id="layer4"
     inkscape:label="Layer 4"
     sodipodi:insensitive="true"><rect
       style="fill:#1e3765;fill-opacity:1;stroke:none;stroke-width:1.28043;stop-color:#000000"
       id="rect388"
       width="203.20001"
       height="152.39999"
       x="-1.2207031e-05"
       y="-8.8123953e-15" /></g><g
     inkscape:label="Layer 1"
     inkscape:groupmode="layer"
     id="layer1"
     sodipodi:insensitive="true"><image
       width="203.2"
       height="152.31534"
       preserveAspectRatio="none"
       xlink:href="Q_edmonton.png"
       id="image186"
       x="0.21550606"
       y="0" /></g><g
     inkscape:groupmode="layer"
     id="layer2"
     inkscape:label="Layer 2"
     style="display:inline"><rect
       style="display:inline;fill:#f1c500;fill-opacity:1;stroke:#ffffff;stroke-width:0.264583;stroke-dasharray:none;stop-color:#000000"
       id="rect661-3-3"
       height="11.479203"
       x="20.382647"
       y="7.6639624"
       transform="matrix(0,1,1,0,0,0)"
       width="2.6800003" /><rect
       style="display:inline;fill:#00a189;fill-opacity:1;stroke:#ffffff;stroke-width:0.264583;stroke-dasharray:none;stop-color:#000000"
       id="rect661-2-6-8"
       width="2.6820526"
       height="35.740986"
       x="20.380594"
       y="19.143166"
       transform="matrix(0,1,1,0,0,0)" /><rect
       style="display:inline;fill:#6fc7ea;fill-opacity:1;stroke:#ffffff;stroke-width:0.264583;stroke-dasharray:none;stop-color:#000000"
       id="rect661-2-7-0-0"
       width="2.6833324"
       height="8.4235916"
       x="20.378336"
       y="54.884151"
       transform="matrix(0,1,1,0,0,0)" /><text
       xml:space="preserve"
       style="font-style:normal;font-variant:normal;font-weight:normal;font-stretch:normal;font-size:2.64583px;line-height:1.25;font-family:'TradeGothic LT';-inkscape-font-specification:'TradeGothic LT, Normal';font-variant-ligatures:normal;font-variant-caps:normal;font-variant-numeric:normal;font-variant-east-asian:normal;display:inline;fill:#ffffff;stroke-width:0.264583"
       x="10.265465"
       y="19.523348"
       id="text4878-61-0-4"><tspan
         sodipodi:role="line"
         id="tspan4876-3-2-0"
         style="font-style:normal;font-variant:normal;font-weight:normal;font-stretch:normal;font-size:2.64583px;font-family:'TradeGothic LT';-inkscape-font-specification:'TradeGothic LT, Normal';font-variant-ligatures:normal;font-variant-caps:normal;font-variant-numeric:normal;font-variant-east-asian:normal;fill:#ffffff;stroke-width:0.264583"
         x="10.265465"
         y="19.523348">20.7%</tspan></text><text
       xml:space="preserve"
       style="font-style:normal;font-variant:normal;font-weight:normal;font-stretch:normal;font-size:2.64583px;line-height:1.25;font-family:'TradeGothic LT';-inkscape-font-specification:'TradeGothic LT, Normal';font-variant-ligatures:normal;font-variant-caps:normal;font-variant-numeric:normal;font-variant-east-asian:normal;display:inline;fill:#ffffff;stroke-width:0.264583"
       x="33.545422"
       y="19.523348"
       id="text4878-61-2-3-9"><tspan
         sodipodi:role="line"
         id="tspan4876-3-1-7-1"
         style="font-style:normal;font-variant:normal;font-weight:normal;font-stretch:normal;font-size:2.64583px;font-family:'TradeGothic LT';-inkscape-font-specification:'TradeGothic LT, Normal';font-variant-ligatures:normal;font-variant-caps:normal;font-variant-numeric:normal;font-variant-east-asian:normal;fill:#ffffff;stroke-width:0.264583"
         x="33.545422"
         y="19.523348">64.0%</tspan></text><text
       xml:space="preserve"
       style="font-style:normal;font-variant:normal;font-weight:normal;font-stretch:normal;font-size:2.64583px;line-height:1.25;font-family:'TradeGothic LT';-inkscape-font-specification:'TradeGothic LT, Normal';font-variant-ligatures:normal;font-variant-caps:normal;font-variant-numeric:normal;font-variant-east-asian:normal;display:inline;fill:#ffffff;stroke-width:0.264583"
       x="55.58987"
       y="19.4531"
       id="text4878-61-2-5-5-9"><tspan
         sodipodi:role="line"
         id="tspan4876-3-1-9-9-6"
         style="font-style:normal;font-variant:normal;font-weight:normal;font-stretch:normal;font-size:2.64583px;font-family:'TradeGothic LT';-inkscape-font-specification:'TradeGothic LT, Normal';font-variant-ligatures:normal;font-variant-caps:normal;font-variant-numeric:normal;font-variant-east-asian:normal;fill:#ffffff;stroke-width:0.264583"
         x="55.58987"
         y="19.4531">15.3%</tspan></text><text
       xml:space="preserve"
       style="font-style:normal;font-variant:normal;font-weight:normal;font-stretch:normal;font-size:3.175px;line-height:1.25;font-family:'TradeGothic LT';-inkscape-font-specification:'TradeGothic LT, Normal';font-variant-ligatures:normal;font-variant-caps:normal;font-variant-numeric:normal;font-variant-east-asian:normal;display:inline;fill:#ffffff;stroke-width:0.264583"
       x="7.2241898"
       y="13.040243"
       id="text4878-6"><tspan
         sodipodi:role="line"
         id="tspan4876-9"
         style="font-style:normal;font-variant:normal;font-weight:bold;font-stretch:normal;font-size:3.175px;font-family:'TradeGothic LT';-inkscape-font-specification:'TradeGothic LT, Normal';font-variant-ligatures:normal;font-variant-caps:normal;font-variant-numeric:normal;font-variant-east-asian:normal;fill:#ffffff;stroke-width:0.264583"
         x="7.2241898"
         y="13.040243">EDMONTON : Residential Zoning </tspan></text><text
       xml:space="preserve"
       style="font-style:normal;font-variant:normal;font-weight:normal;font-stretch:normal;font-size:2.64583px;line-height:1.25;font-family:'TradeGothic LT';-inkscape-font-specification:'TradeGothic LT, Normal';font-variant-ligatures:normal;font-variant-caps:normal;font-variant-numeric:normal;font-variant-east-asian:normal;display:inline;fill:#ffffff;stroke-width:0.264583"
       x="6.9969006"
       y="25.897398"
       id="text4878-62"><tspan
         sodipodi:role="line"
         id="tspan4876-61"
         style="font-style:normal;font-variant:normal;font-weight:normal;font-stretch:normal;font-size:2.64583px;font-family:'TradeGothic LT';-inkscape-font-specification:'TradeGothic LT, Normal';font-variant-ligatures:normal;font-variant-caps:normal;font-variant-numeric:normal;font-variant-east-asian:normal;fill:#ffffff;stroke-width:0.264583"
         x="6.9969006"
         y="25.897398">Single Detached Only</tspan></text><text
       xml:space="preserve"
       style="font-style:normal;font-variant:normal;font-weight:normal;font-stretch:normal;font-size:2.64583px;line-height:1.25;font-family:'TradeGothic LT';-inkscape-font-specification:'TradeGothic LT, Normal';font-variant-ligatures:normal;font-variant-caps:normal;font-variant-numeric:normal;font-variant-east-asian:normal;display:inline;fill:#ffffff;stroke-width:0.264583"
       x="35.149963"
       y="26.138166"
       id="text4878-9-8"><tspan
         sodipodi:role="line"
         style="font-style:normal;font-variant:normal;font-weight:normal;font-stretch:normal;font-size:2.64583px;font-family:'TradeGothic LT';-inkscape-font-specification:'TradeGothic LT, Normal';font-variant-ligatures:normal;font-variant-caps:normal;font-variant-numeric:normal;font-variant-east-asian:normal;fill:#ffffff;stroke-width:0.264583"
         x="35.149963"
         y="26.138166"
         id="tspan6052-7">Other Residential </tspan></text><text
       xml:space="preserve"
       style="font-style:normal;font-variant:normal;font-weight:normal;font-stretch:normal;font-size:2.64583px;line-height:1.25;font-family:'TradeGothic LT';-inkscape-font-specification:'TradeGothic LT, Normal';font-variant-ligatures:normal;font-variant-caps:normal;font-variant-numeric:normal;font-variant-east-asian:normal;display:inline;fill:#ffffff;stroke-width:0.264583"
       x="38.629448"
       y="31.242001"
       id="text4878-9-9-9"><tspan
         sodipodi:role="line"
         style="font-style:normal;font-variant:normal;font-weight:normal;font-stretch:normal;font-size:2.64583px;font-family:'TradeGothic LT';-inkscape-font-specification:'TradeGothic LT, Normal';font-variant-ligatures:normal;font-variant-caps:normal;font-variant-numeric:normal;font-variant-east-asian:normal;fill:#ffffff;stroke-width:0.264583"
         x="38.629448"
         y="31.242001"
         id="tspan6050-2">Mixed Use Buildings</tspan></text><path
       style="display:inline;fill:none;stroke:#ffffff;stroke-width:0.132292;stroke-linecap:butt;stroke-linejoin:miter;stroke-dasharray:none;stroke-opacity:1"
       d="M 7.4887803,14.672691 H 66.77856"
       id="path6303-9" /><path
       style="display:inline;fill:none;stroke:#ffffff;stroke-width:0.264583px;stroke-linecap:butt;stroke-linejoin:miter;stroke-opacity:1"
       d="m 61.81307,23.960648 v 5.201634"
       id="path2469"
       sodipodi:nodetypes="cc" /><text
       xml:space="preserve"
       style="font-style:normal;font-variant:normal;font-weight:normal;font-stretch:normal;font-size:1.85208px;line-height:1.25;font-family:'TradeGothic LT';-inkscape-font-specification:'TradeGothic LT, Normal';font-variant-ligatures:normal;font-variant-caps:normal;font-variant-numeric:normal;font-variant-east-asian:normal;display:inline;fill:#ffffff;stroke-width:0.264583"
       x="6.6872501"
       y="37.709908"
       id="text4878-4"><tspan
         sodipodi:role="line"
         style="font-style:italic;font-variant:normal;font-weight:normal;font-stretch:normal;font-size:1.85208px;font-family:'TradeGothic LT';-inkscape-font-specification:'TradeGothic LT, Normal';font-variant-ligatures:normal;font-variant-caps:normal;font-variant-numeric:normal;font-variant-east-asian:normal;fill:#ffffff;stroke-width:0.264583"
         x="6.6872501"
         y="37.709908"
         id="tspan6305">data from the City of Edmonton</tspan></text><text
       xml:space="preserve"
       style="font-style:normal;font-variant:normal;font-weight:normal;font-stretch:normal;font-size:1.85208px;line-height:1.25;font-family:'TradeGothic LT';-inkscape-font-specification:'TradeGothic LT, Normal';font-variant-ligatures:normal;font-variant-caps:normal;font-variant-numeric:normal;font-variant-east-asian:normal;display:inline;fill:#ffffff;stroke-width:0.264583"
       x="62.717094"
       y="37.709908"
       id="text4878-4-8-6"><tspan
         sodipodi:role="line"
         style="font-style:italic;font-variant:normal;font-weight:normal;font-stretch:normal;font-size:1.85208px;font-family:'TradeGothic LT';-inkscape-font-specification:'TradeGothic LT, Normal';font-variant-ligatures:normal;font-variant-caps:normal;font-variant-numeric:normal;font-variant-east-asian:normal;text-align:end;text-anchor:end;fill:#ffffff;stroke-width:0.264583"
         x="62.717094"
         y="37.709908"
         id="tspan8910">CC BY-NC-SA 4.0</tspan></text><path
       style="display:inline;fill:none;stroke:#ffffff;stroke-width:0.132292;stroke-linecap:butt;stroke-linejoin:miter;stroke-dasharray:none;stroke-opacity:1"
       d="M 6.7724424,38.320622 H 66.062222"
       id="path6303-2" /><path
       style="display:inline;fill:none;stroke:#ffffff;stroke-width:0.132292;stroke-linecap:butt;stroke-linejoin:miter;stroke-dasharray:none;stroke-opacity:1"
       d="M 6.7724424,48.307239 H 66.062222"
       id="path6303-2-5" /><path
       style="display:inline;fill:#ffffff;fill-opacity:1;stroke-width:0.00334695"
       d="m 8.4473624,42.931492 c -0.0269,0.012 -0.0546,0.022 -0.0829,0.0302 0.0335,-0.0379 0.059,-0.0824 0.0746,-0.13116 0.003,-0.0109 -1.3e-4,-0.0229 -0.009,-0.03 -0.009,-0.007 -0.0214,-0.008 -0.0313,-0.002 -0.0601,0.0356 -0.12486,0.0612 -0.1928,0.0762 -0.0684,-0.0669 -0.1614,-0.10494 -0.2575,-0.10494 -0.20284,0 -0.36787,0.16502 -0.36787,0.36786 0,0.016 0.001,0.0319 0.003,0.0475 -0.25171,-0.0221 -0.48572,-0.14583 -0.64641,-0.34294 -0.006,-0.007 -0.0145,-0.0108 -0.0236,-0.0101 -0.009,6.3e-4 -0.0172,0.006 -0.0217,0.0136 -0.0326,0.0559 -0.0498,0.11989 -0.0498,0.18497 0,0.0886 0.0316,0.17274 0.0876,0.23847 -0.017,-0.006 -0.0335,-0.0133 -0.0492,-0.022 -0.008,-0.005 -0.0188,-0.005 -0.0272,1.8e-4 -0.008,0.005 -0.0137,0.0137 -0.0139,0.0233 -4e-5,0.002 -4e-5,0.003 -4e-5,0.005 0,0.13232 0.0712,0.25143 0.18008,0.31635 -0.009,-8.3e-4 -0.0187,-0.002 -0.028,-0.004 -0.01,-0.002 -0.0194,0.001 -0.0259,0.009 -0.006,0.007 -0.009,0.0175 -0.006,0.0268 0.0403,0.12581 0.14405,0.21835 0.26948,0.24657 -0.10403,0.0651 -0.22299,0.0993 -0.34788,0.0993 -0.0261,0 -0.0523,-0.001 -0.0779,-0.005 -0.0128,-9.9e-4 -0.0249,0.006 -0.0293,0.0181 -0.004,0.0121 2.1e-4,0.0256 0.0111,0.0326 0.16043,0.10287 0.34594,0.15724 0.53646,0.15724 0.37453,0 0.60883,-0.17661 0.73943,-0.32477 0.16285,-0.18475 0.25625,-0.42928 0.25625,-0.67091 0,-0.0101 -1.5e-4,-0.0203 -4.2e-4,-0.0305 0.0643,-0.0484 0.11956,-0.10699 0.16458,-0.17432 0.007,-0.0102 0.006,-0.0238 -0.002,-0.0332 -0.008,-0.009 -0.0211,-0.0125 -0.0323,-0.007 z"
       id="path909" /><text
       xml:space="preserve"
       style="font-size:1.85208px;line-height:1.25;font-family:Roboto;-inkscape-font-specification:Roboto;display:inline;fill:#ffffff;stroke-width:0.264583"
       x="6.6727238"
       y="41.523216"
       id="text15968-9-6-9-5"><tspan
         sodipodi:role="line"
         style="font-style:normal;font-variant:normal;font-weight:normal;font-stretch:normal;font-size:1.85208px;font-family:'TradeGothic LT';-inkscape-font-specification:'TradeGothic LT, Normal';font-variant-ligatures:normal;font-variant-caps:normal;font-variant-numeric:normal;font-variant-east-asian:normal;fill:#ffffff;stroke-width:0.264583"
         x="6.6727238"
         y="41.523216"
         id="tspan25598-2">map by<tspan
   style="font-style:normal;font-variant:normal;font-weight:bold;font-stretch:normal;font-size:1.85208px;font-family:'TradeGothic LT Bold';-inkscape-font-specification:'TradeGothic LT Bold, Bold';font-variant-ligatures:normal;font-variant-caps:normal;font-variant-numeric:normal;font-variant-east-asian:normal"
   id="tspan11924"> </tspan><tspan
   style="font-style:normal;font-variant:normal;font-weight:bold;font-stretch:normal;font-size:1.85208px;font-family:'TradeGothic LT Bold';-inkscape-font-specification:'TradeGothic LT Bold, Bold';font-variant-ligatures:normal;font-variant-caps:normal;font-variant-numeric:normal;font-variant-east-asian:normal;fill:#ffffff"
   id="tspan488">Jeff Allen</tspan> (July 2022)</tspan></text><text
       xml:space="preserve"
       style="font-size:1.85208px;line-height:1.25;font-family:Roboto;-inkscape-font-specification:Roboto;display:inline;fill:#ffffff;stroke-width:0.264583"
       x="9.2268009"
       y="44.125511"
       id="text15968-9-6-9-5-9"><tspan
         sodipodi:role="line"
         style="font-style:normal;font-variant:normal;font-weight:normal;font-stretch:normal;font-size:1.85208px;font-family:'TradeGothic LT';-inkscape-font-specification:'TradeGothic LT, Normal';font-variant-ligatures:normal;font-variant-caps:normal;font-variant-numeric:normal;font-variant-east-asian:normal;fill:#ffffff;stroke-width:0.264583"
         x="9.2268009"
         y="44.125511"
         id="tspan569">@JeffAllenMaps</tspan><tspan
         sodipodi:role="line"
         style="font-style:normal;font-variant:normal;font-weight:normal;font-stretch:normal;font-size:1.85208px;font-family:'TradeGothic LT';-inkscape-font-specification:'TradeGothic LT, Normal';font-variant-ligatures:normal;font-variant-caps:normal;font-variant-numeric:normal;font-variant-east-asian:normal;fill:#ffffff;stroke-width:0.264583"
         x="9.2268009"
         y="46.445038"
         id="tspan3127">@jamaps</tspan></text><path
       d="m 7.5275524,44.785272 c -0.52857,0 -0.95724,0.42859 -0.95724,0.95734 0,0.42297 0.27427,0.78174 0.65468,0.90833 0.0479,0.009 0.0654,-0.0208 0.0654,-0.0462 0,-0.0227 -7.1e-4,-0.0829 -0.001,-0.16281 -0.26628,0.0579 -0.32247,-0.12833 -0.32247,-0.12833 -0.0436,-0.11063 -0.10627,-0.14005 -0.10627,-0.14005 -0.0869,-0.0593 0.007,-0.0582 0.007,-0.0582 0.0961,0.007 0.14664,0.0987 0.14664,0.0987 0.0854,0.14628 0.22408,0.10404 0.27862,0.0796 0.009,-0.0618 0.0335,-0.10404 0.0608,-0.12794 -0.21257,-0.0241 -0.43607,-0.10626 -0.43607,-0.47315 0,-0.10449 0.0373,-0.19 0.0986,-0.25686 -0.0101,-0.0242 -0.0427,-0.1216 0.009,-0.25336 0,0 0.0804,-0.0257 0.26324,0.0981 0.0763,-0.0212 0.15826,-0.0319 0.23966,-0.0323 0.0814,3.4e-4 0.1632,0.0112 0.23966,0.0323 0.18277,-0.12389 0.26299,-0.0981 0.26299,-0.0981 0.0522,0.13176 0.0195,0.22914 0.0101,0.25336 0.0614,0.0668 0.0983,0.15237 0.0983,0.25686 0,0.36779 -0.22385,0.44872 -0.43705,0.47239 0.0343,0.0295 0.0649,0.0879 0.0649,0.17726 0,0.128 -0.001,0.23125 -0.001,0.26263 0,0.0257 0.0172,0.0554 0.0658,0.046 0.38011,-0.12688 0.65416,-0.48542 0.65416,-0.90826 0,-0.52876 -0.42866,-0.95735 -0.95741,-0.95735"
       style="display:inline;fill:#ffffff;fill-opacity:1;fill-rule:evenodd;stroke:none;stroke-width:0.0058769"
       id="path675" /><g
       id="g7248"
       transform="matrix(0.01408644,0,0,-0.01408644,41.733712,50.356672)"
       style="display:inline;fill:#ffffff"><path
         d="m 1339.91,598.438 c -23.36,0 -42.29,-18.965 -42.29,-42.266 0,-23.32 18.96,-42.285 42.28,-42.285 23.28,0 42.23,18.965 42.23,42.285 0,23.301 -18.95,42.266 -42.22,42.266"
         style="fill:#ffffff;fill-opacity:1;fill-rule:nonzero;stroke:none"
         id="path7250" /><path
         d="m 1458.99,321.863 c -13.14,0 -23.81,-10.691 -23.81,-23.843 0,-13.165 10.67,-23.887 23.81,-23.887 13.19,0 23.92,10.722 23.92,23.887 0,13.152 -10.73,23.843 -23.92,23.843"
         style="fill:#ffffff;fill-opacity:1;fill-rule:nonzero;stroke:none"
         id="path7252" /><path
         d="m 1458.99,381.465 c -13.14,0 -23.81,-10.711 -23.81,-23.867 0,-13.184 10.67,-23.907 23.81,-23.907 13.19,0 23.92,10.723 23.92,23.907 0,13.156 -10.73,23.867 -23.92,23.867"
         style="fill:#ffffff;fill-opacity:1;fill-rule:nonzero;stroke:none"
         id="path7254" /><path
         d="m 1458.99,441.023 c -13.14,0 -23.81,-10.71 -23.81,-23.875 0,-13.156 10.67,-23.855 23.81,-23.855 13.19,0 23.92,10.699 23.92,23.855 0,13.165 -10.73,23.875 -23.92,23.875"
         style="fill:#ffffff;fill-opacity:1;fill-rule:nonzero;stroke:none"
         id="path7256" /><path
         d="m 1399.43,321.863 c -13.14,0 -23.87,-10.679 -23.88,-23.816 0.01,-13.211 10.74,-23.914 23.88,-23.914 13.19,0 23.92,10.722 23.92,23.887 0,13.152 -10.73,23.843 -23.92,23.843 z m 0,-10 c 7.68,0 13.92,-6.211 13.92,-13.843 0,-7.661 -6.24,-13.887 -13.92,-13.887 -7.65,0 -13.87,6.25 -13.88,13.902 0.01,7.629 6.23,13.828 13.88,13.828"
         style="fill:#ffffff;fill-opacity:1;fill-rule:nonzero;stroke:none"
         id="path7258" /><path
         d="m 1399.43,381.465 c -13.14,0 -23.87,-10.695 -23.88,-23.836 0.01,-13.242 10.74,-23.938 23.88,-23.938 13.19,0 23.92,10.723 23.92,23.907 0,13.156 -10.73,23.867 -23.92,23.867 z m 0,-10 c 7.68,0 13.92,-6.223 13.92,-13.867 0,-7.664 -6.24,-13.907 -13.92,-13.907 -7.65,0 -13.87,6.258 -13.88,13.926 0.01,7.637 6.23,13.848 13.88,13.848"
         style="fill:#ffffff;fill-opacity:1;fill-rule:nonzero;stroke:none"
         id="path7260" /><path
         d="m 1339.9,321.863 c -13.17,0 -23.87,-10.691 -23.87,-23.843 0,-13.165 10.7,-23.887 23.87,-23.887 13.1,0 23.79,10.703 23.82,23.836 -0.03,13.215 -10.72,23.894 -23.82,23.894"
         style="fill:#ffffff;fill-opacity:1;fill-rule:nonzero;stroke:none"
         id="path7262" /><path
         d="m 1339.9,381.465 c -13.17,0 -23.87,-10.711 -23.87,-23.867 0,-13.184 10.7,-23.907 23.87,-23.907 13.1,0 23.79,10.696 23.82,23.836 -0.03,13.243 -10.72,23.938 -23.82,23.938"
         style="fill:#ffffff;fill-opacity:1;fill-rule:nonzero;stroke:none"
         id="path7264" /><path
         d="m 1339.9,441.023 c -13.17,0 -23.87,-10.71 -23.87,-23.875 0,-13.156 10.7,-23.855 23.87,-23.855 13.15,0 23.82,10.699 23.82,23.855 0,13.165 -10.67,23.875 -23.82,23.875"
         style="fill:#ffffff;fill-opacity:1;fill-rule:nonzero;stroke:none"
         id="path7266" /><path
         d="m 1280.3,321.863 c -13.15,0 -23.86,-10.691 -23.86,-23.843 0,-13.165 10.71,-23.887 23.86,-23.887 13.18,0 23.9,10.722 23.9,23.887 0,13.152 -10.72,23.843 -23.9,23.843 z m 0,-10 c 7.67,0 13.9,-6.211 13.9,-13.843 0,-7.661 -6.23,-13.887 -13.9,-13.887 -7.64,0 -13.86,6.226 -13.86,13.887 0,7.632 6.22,13.843 13.86,13.843"
         style="fill:#ffffff;fill-opacity:1;fill-rule:nonzero;stroke:none"
         id="path7268" /><path
         d="m 1280.3,381.465 c -13.15,0 -23.86,-10.711 -23.86,-23.867 0,-13.184 10.71,-23.907 23.86,-23.907 13.18,0 23.9,10.723 23.9,23.907 0,13.156 -10.72,23.867 -23.9,23.867 z m 0,-10 c 7.67,0 13.9,-6.223 13.9,-13.867 0,-7.664 -6.23,-13.907 -13.9,-13.907 -7.64,0 -13.86,6.243 -13.86,13.907 0,7.644 6.22,13.867 13.86,13.867"
         style="fill:#ffffff;fill-opacity:1;fill-rule:nonzero;stroke:none"
         id="path7270" /><path
         d="m 1280.3,441.023 c -13.15,0 -23.86,-10.71 -23.86,-23.875 0,-13.156 10.71,-23.855 23.86,-23.855 13.18,0 23.9,10.699 23.9,23.855 0,13.165 -10.72,23.875 -23.9,23.875 z m 0,-10 c 7.67,0 13.9,-6.218 13.9,-13.875 0,-7.636 -6.23,-13.855 -13.9,-13.855 -7.64,0 -13.86,6.219 -13.86,13.855 0,7.657 6.22,13.875 13.86,13.875"
         style="fill:#ffffff;fill-opacity:1;fill-rule:nonzero;stroke:none"
         id="path7272" /><path
         d="m 1220.72,321.863 c -13.17,0 -23.9,-10.691 -23.9,-23.843 0,-13.165 10.73,-23.887 23.9,-23.887 13.18,0 23.9,10.722 23.9,23.887 0,13.152 -10.72,23.843 -23.9,23.843"
         style="fill:#ffffff;fill-opacity:1;fill-rule:nonzero;stroke:none"
         id="path7274" /><path
         d="m 1220.72,381.465 c -13.17,0 -23.9,-10.711 -23.9,-23.867 0,-13.184 10.73,-23.907 23.9,-23.907 13.18,0 23.9,10.723 23.9,23.907 0,13.156 -10.72,23.867 -23.9,23.867"
         style="fill:#ffffff;fill-opacity:1;fill-rule:nonzero;stroke:none"
         id="path7276" /><path
         d="m 1220.72,441.023 c -13.17,0 -23.9,-10.71 -23.9,-23.875 0,-13.156 10.73,-23.855 23.9,-23.855 13.18,0 23.9,10.699 23.9,23.855 0,13.165 -10.72,23.875 -23.9,23.875"
         style="fill:#ffffff;fill-opacity:1;fill-rule:nonzero;stroke:none"
         id="path7278" /><path
         d="m 1220.72,500.586 c -13.17,0 -23.9,-10.676 -23.9,-23.809 0,-13.191 10.73,-23.925 23.9,-23.925 13.18,0 23.9,10.734 23.9,23.925 0,13.133 -10.72,23.809 -23.9,23.809"
         style="fill:#ffffff;fill-opacity:1;fill-rule:nonzero;stroke:none"
         id="path7280" /><path
         d="m 1339.9,500.586 c -13.17,0 -23.87,-10.676 -23.87,-23.809 0,-13.191 10.7,-23.925 23.87,-23.925 13.15,0 23.82,10.734 23.82,23.925 0,13.133 -10.67,23.809 -23.82,23.809"
         style="fill:#ffffff;fill-opacity:1;fill-rule:nonzero;stroke:none"
         id="path7282" /><path
         d="m 1339.91,611.738 c 13.14,0 23.81,10.723 23.81,23.875 0,13.157 -10.67,23.86 -23.82,23.86 -13.17,0 -23.87,-10.703 -23.87,-23.86 0,-13.152 10.68,-23.875 23.81,-23.875"
         style="fill:#ffffff;fill-opacity:1;fill-rule:nonzero;stroke:none"
         id="path7284" /><path
         d="m 1339.9,719.055 c -13.17,0 -23.87,-10.696 -23.87,-23.86 0,-13.183 10.7,-23.894 23.87,-23.894 13.15,0 23.82,10.711 23.82,23.894 0,13.164 -10.67,23.86 -23.82,23.86"
         style="fill:#ffffff;fill-opacity:1;fill-rule:nonzero;stroke:none"
         id="path7286" /><path
         d="m 1220.72,560.176 c -13.17,0 -23.9,-10.703 -23.9,-23.887 0,-13.164 10.73,-23.867 23.9,-23.867 13.18,0 23.9,10.703 23.9,23.867 0,13.184 -10.72,23.887 -23.9,23.887"
         style="fill:#ffffff;fill-opacity:1;fill-rule:nonzero;stroke:none"
         id="path7288" /><path
         d="m 1161.14,321.863 c -13.19,0 -23.92,-10.691 -23.92,-23.843 0,-13.165 10.73,-23.887 23.92,-23.887 13.16,0 23.86,10.722 23.86,23.887 0,13.152 -10.7,23.843 -23.86,23.843 z m 0,-10 c 7.64,0 13.86,-6.211 13.86,-13.843 0,-7.661 -6.22,-13.887 -13.86,-13.887 -7.67,0 -13.92,6.226 -13.92,13.887 0,7.632 6.25,13.843 13.92,13.843"
         style="fill:#ffffff;fill-opacity:1;fill-rule:nonzero;stroke:none"
         id="path7290" /><path
         d="m 1161.14,381.465 c -13.19,0 -23.92,-10.711 -23.92,-23.867 0,-13.184 10.73,-23.907 23.92,-23.907 13.16,0 23.86,10.723 23.86,23.907 0,13.156 -10.7,23.867 -23.86,23.867 z m 0,-10 c 7.64,0 13.86,-6.223 13.86,-13.867 0,-7.664 -6.22,-13.907 -13.86,-13.907 -7.67,0 -13.92,6.243 -13.92,13.907 0,7.644 6.25,13.867 13.92,13.867"
         style="fill:#ffffff;fill-opacity:1;fill-rule:nonzero;stroke:none"
         id="path7292" /><path
         d="m 1161.14,441.023 c -13.19,0 -23.92,-10.71 -23.92,-23.875 0,-13.156 10.73,-23.855 23.92,-23.855 13.16,0 23.86,10.699 23.86,23.855 0,13.165 -10.7,23.875 -23.86,23.875 z m 0,-10 c 7.64,0 13.86,-6.218 13.86,-13.875 0,-7.636 -6.22,-13.855 -13.86,-13.855 -7.67,0 -13.92,6.219 -13.92,13.855 0,7.657 6.25,13.875 13.92,13.875"
         style="fill:#ffffff;fill-opacity:1;fill-rule:nonzero;stroke:none"
         id="path7294" /><path
         d="m 1061.88,321.863 c -13.17,0 -23.9,-10.691 -23.9,-23.843 0,-13.165 10.73,-23.887 23.9,-23.887 13.14,0 23.83,10.722 23.83,23.887 0,13.152 -10.69,23.843 -23.83,23.843"
         style="fill:#ffffff;fill-opacity:1;fill-rule:nonzero;stroke:none"
         id="path7296" /><path
         d="m 1101.58,381.465 c -13.19,0 -23.91,-10.711 -23.91,-23.867 0,-13.184 10.72,-23.907 23.91,-23.907 13.13,0 23.8,10.723 23.8,23.907 0,13.156 -10.67,23.867 -23.8,23.867"
         style="fill:#ffffff;fill-opacity:1;fill-rule:nonzero;stroke:none"
         id="path7298" /><path
         d="m 1101.58,500.586 c -13.19,0 -23.91,-10.691 -23.91,-23.84 0,-13.183 10.72,-23.894 23.91,-23.894 13.13,0 23.8,10.711 23.8,23.894 0,13.149 -10.67,23.84 -23.8,23.84"
         style="fill:#ffffff;fill-opacity:1;fill-rule:nonzero;stroke:none"
         id="path7300" /><path
         d="m 1061.88,441.023 c -13.17,0 -23.9,-10.71 -23.9,-23.875 0,-13.156 10.73,-23.855 23.9,-23.855 13.14,0 23.83,10.699 23.83,23.855 0,13.165 -10.69,23.875 -23.83,23.875"
         style="fill:#ffffff;fill-opacity:1;fill-rule:nonzero;stroke:none"
         id="path7302" /><path
         d="m 288.328,555.637 c -4.644,13.718 -10.699,19.578 -20.39,19.578 -9.891,0 -15.34,-6.055 -15.34,-15.945 0,-22.004 62.175,-23.625 62.175,-69.25 0,-25.032 -17.168,-41.582 -46.433,-41.582 -22.61,0 -40.176,12.316 -47.637,40.988 l 27.449,5.847 c 3.235,-17.558 13.325,-23.82 21.606,-23.82 9.683,0 17.156,6.457 17.156,17.363 0,27.454 -62.18,27.864 -62.18,68.633 0,25.031 14.946,40.781 43.813,40.781 24.82,0 39.969,-14.734 44.812,-35.332 l -25.031,-7.261"
         style="fill:#ffffff;fill-opacity:1;fill-rule:nonzero;stroke:none"
         id="path7304" /><path
         d="m 362.988,493.66 c 0,-16.148 7.071,-20.594 18.172,-20.594 11.106,0 18.164,4.446 18.164,20.594 v 9.692 h 27.864 v -6.055 c 0,-35.942 -18.973,-48.859 -46.028,-48.859 -27.051,0 -46.023,12.917 -46.023,48.859 v 52.078 c 0,35.938 18.972,48.855 46.023,48.855 27.055,0 46.028,-12.917 46.028,-48.855 v -0.398 h -27.864 v 4.031 c 0,16.152 -7.058,20.597 -18.164,20.597 -11.101,0 -18.172,-4.445 -18.172,-20.597 V 493.66"
         style="fill:#ffffff;fill-opacity:1;fill-rule:nonzero;stroke:none"
         id="path7306" /><path
         d="m 448.77,450.461 v 145.75 h 27.863 v -58.145 h 39.363 v 58.145 h 27.852 v -145.75 h -27.852 v 62.977 H 476.633 V 450.461 H 448.77"
         style="fill:#ffffff;fill-opacity:1;fill-rule:nonzero;stroke:none"
         id="path7308" /><path
         d="m 594.102,493.66 c 0,-16.148 7.07,-20.594 18.171,-20.594 11.106,0 18.165,4.446 18.165,20.594 v 59.348 c 0,16.152 -7.059,20.597 -18.165,20.597 -11.101,0 -18.171,-4.445 -18.171,-20.597 z m -27.852,55.715 c 0,35.938 18.977,48.855 46.023,48.855 27.051,0 46.028,-12.917 46.028,-48.855 v -52.078 c 0,-35.942 -18.977,-48.859 -46.028,-48.859 -27.046,0 -46.023,12.917 -46.023,48.859 v 52.078"
         style="fill:#ffffff;fill-opacity:1;fill-rule:nonzero;stroke:none"
         id="path7310" /><path
         d="m 705.73,493.66 c 0,-16.148 7.075,-20.594 18.176,-20.594 11.106,0 18.164,4.446 18.164,20.594 v 59.348 c 0,16.152 -7.058,20.597 -18.164,20.597 -11.101,0 -18.176,-4.445 -18.176,-20.597 z m -27.847,55.715 c 0,35.938 18.972,48.855 46.023,48.855 27.051,0 46.028,-12.917 46.028,-48.855 v -52.078 c 0,-35.942 -18.977,-48.859 -46.028,-48.859 -27.051,0 -46.023,12.917 -46.023,48.859 v 52.078"
         style="fill:#ffffff;fill-opacity:1;fill-rule:nonzero;stroke:none"
         id="path7312" /><path
         d="m 791.531,450.461 v 145.75 h 27.856 V 475.09 h 44.824 v -24.629 h -72.68"
         style="fill:#ffffff;fill-opacity:1;fill-rule:nonzero;stroke:none"
         id="path7314" /><path
         d="m 252.188,319.355 c 0,-16.152 7.07,-20.593 18.171,-20.593 11.106,0 18.164,4.441 18.164,20.593 v 59.344 c 0,16.156 -7.058,20.598 -18.164,20.598 -11.101,0 -18.171,-4.442 -18.171,-20.598 z m -27.852,55.711 c 0,35.942 18.977,48.86 46.023,48.86 27.051,0 46.028,-12.918 46.028,-48.86 v -52.078 c 0,-35.937 -18.977,-48.855 -46.028,-48.855 -27.046,0 -46.023,12.918 -46.023,48.855 v 52.078"
         style="fill:#ffffff;fill-opacity:1;fill-rule:nonzero;stroke:none"
         id="path7316" /><path
         d="m 337.988,276.152 v 145.75 h 72.676 V 397.273 H 365.84 V 363.77 h 35.129 V 339.141 H 365.84 v -62.989 h -27.852"
         style="fill:#ffffff;fill-opacity:1;fill-rule:nonzero;stroke:none"
         id="path7318" /><path
         d="m 496.418,319.355 c 0,-16.152 7.066,-20.593 18.172,-20.593 11.101,0 18.164,4.441 18.164,20.593 v 9.688 h 27.859 v -6.055 c 0,-35.937 -18.972,-48.855 -46.023,-48.855 -27.051,0 -46.027,12.918 -46.027,48.855 v 52.078 c 0,35.942 18.976,48.86 46.027,48.86 27.051,0 46.023,-12.918 46.023,-48.86 v -0.398 h -27.859 v 4.031 c 0,16.156 -7.063,20.598 -18.164,20.598 -11.106,0 -18.172,-4.442 -18.172,-20.598 v -59.344"
         style="fill:#ffffff;fill-opacity:1;fill-rule:nonzero;stroke:none"
         id="path7320" /><path
         d="m 582.188,276.152 v 145.75 h 27.863 v -145.75 h -27.863"
         style="fill:#ffffff;fill-opacity:1;fill-rule:nonzero;stroke:none"
         id="path7322" /><path
         d="m 721.309,421.902 v -24.629 h -32.5 V 276.152 h -27.852 v 121.121 h -32.512 v 24.629 h 92.864"
         style="fill:#ffffff;fill-opacity:1;fill-rule:nonzero;stroke:none"
         id="path7324" /><path
         d="m 739.883,276.152 v 145.75 h 27.859 v -145.75 h -27.859"
         style="fill:#ffffff;fill-opacity:1;fill-rule:nonzero;stroke:none"
         id="path7326" /><path
         d="m 791.73,276.152 v 145.75 h 76.305 V 397.273 H 819.578 V 363.77 h 36.945 v -24.629 h -36.945 v -38.36 h 50.473 V 276.152 H 791.73"
         style="fill:#ffffff;fill-opacity:1;fill-rule:nonzero;stroke:none"
         id="path7328" /><path
         d="m 953.633,381.328 c -4.649,13.731 -10.703,19.578 -20.391,19.578 -9.89,0 -15.344,-6.051 -15.344,-15.945 0,-22 62.18,-23.613 62.18,-69.238 0,-25.039 -17.168,-41.59 -46.433,-41.59 -22.61,0 -40.176,12.312 -47.649,40.984 l 27.461,5.852 c 3.231,-17.563 13.32,-23.821 21.602,-23.821 9.687,0 17.16,6.457 17.16,17.364 0,27.453 -62.18,27.851 -62.18,68.633 0,25.031 14.941,40.781 43.809,40.781 24.824,0 39.968,-14.738 44.812,-35.332 l -25.027,-7.266"
         style="fill:#ffffff;fill-opacity:1;fill-rule:nonzero;stroke:none"
         id="path7330" /></g></g><g
     inkscape:groupmode="layer"
     id="layer3"
     inkscape:label="Layer 3"
     style="display:inline"
     sodipodi:insensitive="true"><text
       xml:space="preserve"
       style="font-style:normal;font-variant:normal;font-weight:normal;font-stretch:normal;font-size:2.64583px;line-height:1.25;font-family:'TradeGothic LT';-inkscape-font-specification:'TradeGothic LT, Normal';font-variant-ligatures:normal;font-variant-caps:normal;font-variant-numeric:normal;font-variant-east-asian:normal;display:inline;fill:#ffffff;stroke-width:0.264583"
       x="169.9805"
       y="26.147091"
       id="text4878-67-9"><tspan
         sodipodi:role="line"
         id="tspan4876-5-1"
         style="font-style:normal;font-variant:normal;font-weight:normal;font-stretch:normal;font-size:2.64583px;font-family:'TradeGothic LT';-inkscape-font-specification:'TradeGothic LT, Normal';font-variant-ligatures:normal;font-variant-caps:normal;font-variant-numeric:normal;font-variant-east-asian:normal;fill:#ffffff;stroke-width:0.264583"
         x="169.9805"
         y="26.147091">5km</tspan></text><text
       xml:space="preserve"
       style="font-style:normal;font-variant:normal;font-weight:normal;font-stretch:normal;font-size:2.64583px;line-height:1.25;font-family:'TradeGothic LT';-inkscape-font-specification:'TradeGothic LT, Normal';font-variant-ligatures:normal;font-variant-caps:normal;font-variant-numeric:normal;font-variant-east-asian:normal;display:inline;fill:#ffffff;stroke-width:0.264583"
       x="182.59229"
       y="22.999157"
       id="text4878-67-3-2"><tspan
         sodipodi:role="line"
         id="tspan4876-5-5-7"
         style="font-style:normal;font-variant:normal;font-weight:bold;font-stretch:normal;font-size:2.64583px;font-family:'TradeGothic LT';-inkscape-font-specification:'TradeGothic LT, Normal';font-variant-ligatures:normal;font-variant-caps:normal;font-variant-numeric:normal;font-variant-east-asian:normal;fill:#ffffff;stroke-width:0.264583"
         x="182.59229"
         y="22.999157">N</tspan></text><path
       style="display:inline;fill:none;stroke:#ffffff;stroke-width:0.264583;stroke-linecap:butt;stroke-linejoin:miter;stroke-dasharray:none;stroke-opacity:1"
       d="m 163.02301,26.307666 v 0.4748 h 19.02635 v 0 l 0.003,-0.4748"
       id="path6303-9-3-0"
       sodipodi:nodetypes="ccccc" /><path
       style="display:inline;fill:none;stroke:#ffffff;stroke-width:0.264583px;stroke-linecap:butt;stroke-linejoin:miter;stroke-opacity:1;marker-start:url(#Arrow1-6)"
       d="m 183.54743,23.690916 v 3.28175"
       id="path2140-9" /></g></svg>
